<svg width="48" height="48" viewBox="0 0 48 48" fill="none" xmlns="http://www.w3.org/2000/svg">
<rect opacity="0.6" x="40" y="41.25" width="5" height="4.5" fill="url(#paint0_radial_0_452)"/>
<rect opacity="0.6" x="8" y="45.75" width="5" height="4.5" transform="rotate(180 8 45.75)" fill="url(#paint1_radial_0_452)"/>
<rect opacity="0.6" x="8" y="41.25" width="32" height="4.5" fill="url(#paint2_linear_0_452)"/>
<rect x="4.5" y="5" width="39" height="39" rx="4" fill="url(#paint3_linear_0_452)"/>
<rect opacity="0.35" x="5.5" y="6" width="37" height="37" rx="3" stroke="url(#paint4_linear_0_452)" stroke-linecap="round" stroke-linejoin="round"/>
<rect opacity="0.5" x="4.5" y="5" width="39" height="39" rx="4" stroke="#AD5F00"/>
<path d="M20.2512 13.75H7.75122V16.25H20.2512V13.75Z" fill="#AD5F00"/>
<path d="M32.75 8.75V13.75H27.75V16.25H32.75V21.25H35.25V16.25H40.25V13.75H35.25V8.75H32.75Z" fill="#AD5F00"/>
<defs>
<radialGradient id="paint0_radial_0_452" cx="0" cy="0" r="1" gradientUnits="userSpaceOnUse" gradientTransform="translate(39.993 43.5) scale(5.00946 2.0623)">
<stop stop-color="#181818"/>
<stop offset="1" stop-color="#181818" stop-opacity="0.01"/>
</radialGradient>
<radialGradient id="paint1_radial_0_452" cx="0" cy="0" r="1" gradientUnits="userSpaceOnUse" gradientTransform="translate(7.99298 48) scale(5.00946 2.0482)">
<stop stop-color="#181818"/>
<stop offset="1" stop-color="#181818" stop-opacity="0.01"/>
</radialGradient>
<linearGradient id="paint2_linear_0_452" x1="41.2739" y1="45.7678" x2="41.2739" y2="41.2496" gradientUnits="userSpaceOnUse">
<stop stop-color="#181818" stop-opacity="0.01"/>
<stop offset="0.5" stop-color="#181818"/>
<stop offset="1" stop-color="#181818" stop-opacity="0.01"/>
</linearGradient>
<linearGradient id="paint3_linear_0_452" x1="4.45335" y1="5.58318" x2="4.45335" y2="43.7331" gradientUnits="userSpaceOnUse">
<stop stop-color="#FFF394"/>
<stop offset="1" stop-color="#FFE16B"/>
</linearGradient>
<linearGradient id="paint4_linear_0_452" x1="21.0273" y1="6.5" x2="21.0273" y2="42.4454" gradientUnits="userSpaceOnUse">
<stop stop-color="white"/>
<stop offset="0.0678164" stop-color="white" stop-opacity="0.235294"/>
<stop offset="0.946944" stop-color="white" stop-opacity="0.156863"/>
<stop offset="1" stop-color="white" stop-opacity="0.392157"/>
</linearGradient>
</defs>
</svg>
