<svg width="128" height="128" viewBox="0 0 128 128" fill="none" xmlns="http://www.w3.org/2000/svg">
<g opacity="0.4">
<rect width="14.2105" height="16" transform="matrix(1 0 0 -1 103.75 125.2)" fill="url(#paint0_radial_0_366)"/>
<rect x="24.2119" y="125.2" width="14.2105" height="16" transform="rotate(180 24.2119 125.2)" fill="url(#paint1_radial_0_366)"/>
<rect x="24.2104" y="113.5" width="79.5789" height="8" fill="url(#paint2_linear_0_366)"/>
</g>
<rect x="12.5" y="14" width="103" height="103" rx="10" fill="url(#paint3_linear_0_366)"/>
<rect opacity="0.3" x="13.5" y="15" width="101" height="101" rx="9" stroke="url(#paint4_linear_0_366)" stroke-linecap="round" stroke-linejoin="round"/>
<rect opacity="0.5" x="12.5" y="14" width="103" height="103" rx="10" stroke="#AD5F00" stroke-linecap="round" stroke-linejoin="round"/>
<path d="M46.002 38H26.002V42H46.002V38Z" fill="#AD5F00"/>
<path d="M90 30V38H82V42H90V50H94V42H102V38H94V30H90Z" fill="#AD5F00"/>
<defs>
<radialGradient id="paint0_radial_0_366" cx="0" cy="0" r="1" gradientUnits="userSpaceOnUse" gradientTransform="translate(-0.0199493 8) scale(14.2374 4.5)">
<stop stop-color="#181818"/>
<stop offset="1" stop-color="#181818" stop-opacity="0.01"/>
</radialGradient>
<radialGradient id="paint1_radial_0_366" cx="0" cy="0" r="1" gradientUnits="userSpaceOnUse" gradientTransform="translate(24.192 133.2) scale(14.2374 4.5)">
<stop stop-color="#181818"/>
<stop offset="1" stop-color="#181818" stop-opacity="0.01"/>
</radialGradient>
<linearGradient id="paint2_linear_0_366" x1="106.957" y1="121.532" x2="106.957" y2="113.499" gradientUnits="userSpaceOnUse">
<stop stop-color="#181818" stop-opacity="0.01"/>
<stop offset="0.5" stop-color="#181818"/>
<stop offset="1" stop-color="#181818" stop-opacity="0.01"/>
</linearGradient>
<linearGradient id="paint3_linear_0_366" x1="11.6118" y1="14.4073" x2="11.6118" y2="116.927" gradientUnits="userSpaceOnUse">
<stop stop-color="#FFF394"/>
<stop offset="1" stop-color="#FFE16B"/>
</linearGradient>
<linearGradient id="paint4_linear_0_366" x1="12.1351" y1="13.6351" x2="12.1351" y2="117.365" gradientUnits="userSpaceOnUse">
<stop stop-color="white"/>
<stop offset="0.0631645" stop-color="white" stop-opacity="0.235294"/>
<stop offset="0.950563" stop-color="white" stop-opacity="0.156863"/>
<stop offset="1" stop-color="white" stop-opacity="0.392157"/>
</linearGradient>
</defs>
</svg>
